<?xml version="1.0" standalone="no"?>
<!DOCTYPE svg PUBLIC "-//W3C//DTD SVG 20010904//EN"
 "http://www.w3.org/TR/2001/REC-SVG-20010904/DTD/svg10.dtd">
<svg version="1.0" xmlns="http://www.w3.org/2000/svg"
 width="670.000000pt" height="670.000000pt" viewBox="0 0 670.000000 670.000000"
 preserveAspectRatio="xMidYMid meet">
<metadata>
Created by potrace 1.14, written by Peter Selinger 2001-2017
</metadata>
<g transform="translate(0.000000,670.000000) scale(0.100000,-0.100000)"
fill="#000000" stroke="none">
<path d="M3507 6678 c-106 -170 -141 -206 -257 -264 -42 -21 -72 -29 -127 -31
-93 -3 -186 -25 -267 -62 -100 -45 -165 -91 -273 -193 l-31 -30 -48 16 c-120
41 -176 138 -191 330 -6 84 -13 104 -52 149 -46 52 -121 81 -196 75 -116 -10
-184 -67 -215 -181 -15 -54 -15 -70 -4 -125 36 -172 185 -324 441 -447 l101
-48 -20 -36 c-11 -20 -22 -40 -25 -44 -3 -5 -13 7 -22 25 -32 60 -151 124
-283 152 -75 16 -207 12 -287 -9 -68 -17 -134 -24 -305 -29 -90 -3 -111 -7
-119 -21 -20 -36 14 -183 66 -283 63 -121 174 -210 322 -256 68 -21 103 -26
220 -32 117 -7 122 -10 155 -115 l21 -66 -37 -119 c-80 -261 -147 -498 -160
-574 -3 -14 -13 -68 -24 -120 -10 -52 -21 -111 -24 -130 -14 -103 -17 -129
-21 -170 -7 -72 -6 -241 1 -290 18 -129 72 -219 229 -375 33 -33 81 -76 105
-95 25 -19 47 -38 50 -41 11 -16 184 -119 258 -154 l79 -38 -9 -41 c-14 -61
-198 -308 -492 -662 -28 -33 -69 -83 -91 -109 -41 -50 -86 -103 -279 -329
l-108 -127 5 -62 c10 -115 55 -206 145 -294 80 -77 223 -154 317 -169 45 -7
79 18 157 118 34 43 66 78 70 78 5 0 7 -4 4 -9 -6 -8 -8 -31 -23 -178 -9 -98
-10 -392 0 -457 11 -82 17 -121 22 -146 3 -14 8 -41 11 -60 35 -222 110 -446
179 -536 47 -61 61 -64 277 -59 106 3 207 7 223 9 136 16 199 41 217 83 8 18
12 108 13 263 1 129 5 249 8 265 l8 31 162 2 c89 2 209 4 266 6 66 1 104 -2
106 -8 2 -6 6 -42 9 -79 11 -117 38 -281 62 -364 15 -56 32 -71 87 -79 108
-15 153 -18 247 -18 211 -1 321 24 398 89 46 38 59 70 57 140 -4 113 -16 400
-20 435 -1 19 -6 71 -9 115 -10 116 -16 185 -21 225 -3 19 -7 58 -10 85 -3 28
-11 84 -16 125 -6 41 -12 86 -14 100 -7 58 -39 259 -51 320 -3 14 -7 36 -10
50 -22 111 -39 190 -60 284 -14 60 -23 110 -21 113 7 6 146 -27 207 -50 68
-26 156 -28 191 -5 23 15 219 327 219 349 0 5 5 9 10 9 6 0 10 4 10 9 0 25
180 297 237 359 34 36 64 88 115 198 21 45 -46 191 -128 283 -82 91 -206 163
-306 176 -61 8 -50 26 -230 -355 -144 -303 -178 -360 -215 -360 -22 0 -64 24
-239 136 -181 116 -191 125 -169 144 8 7 15 10 15 6 0 -3 39 15 88 40 306 162
463 366 505 659 17 116 11 325 -14 445 -5 25 -11 57 -14 73 -11 60 -18 88 -56
242 -22 88 -42 167 -44 175 -2 8 -11 42 -20 75 -17 64 -55 190 -111 369 -19
60 -34 114 -34 121 0 29 28 48 74 50 27 2 65 6 85 10 20 4 47 9 61 12 57 10
171 54 226 87 133 78 210 189 248 353 19 84 20 133 5 166 -10 23 -14 24 -77
19 -87 -7 -319 -7 -449 0 -134 7 -266 -23 -368 -84 -34 -20 -45 -22 -45 -8 0
5 24 22 53 36 249 126 412 347 385 521 -16 103 -63 164 -153 198 -92 36 -218
-3 -270 -83 -24 -38 -30 -63 -40 -168 -10 -115 -56 -220 -113 -260 -20 -14
-24 -13 -44 7 -31 29 -124 92 -173 116 -34 17 -70 31 -203 78 -10 4 -10 9 2
27 22 36 50 134 42 153 -6 16 -8 16 -34 0 -15 -10 -50 -42 -78 -71 -28 -30
-54 -54 -57 -54 -4 0 -2 12 4 28 6 15 12 34 14 42 2 8 11 46 20 85 21 87 25
134 14 140 -4 3 -15 -5 -22 -17z"/>
</g>
</svg>
